<svg width="32" height="32" viewBox="0 0 32 32" fill="none" xmlns="http://www.w3.org/2000/svg">
<path fill-rule="evenodd" clip-rule="evenodd" d="M6.66667 22C5.19391 22 4 20.8061 4 19.3333V12.6667C4 11.1939 5.19391 10 6.66667 10H17.3333C18.8061 10 20 11.1939 20 12.6667V19.3333C20 20.8061 18.8061 22 17.3333 22H6.66667ZM22 17.4013C22 17.7821 22.1629 18.1448 22.4475 18.3978L25.7808 21.3608C26.6407 22.1251 28 21.5147 28 20.3643V11.6358C28 10.4854 26.6407 9.87497 25.7808 10.6393L22.4475 13.6023C22.1629 13.8553 22 14.218 22 14.5988V17.4013Z" fill="#1F1F1F"/>
</svg>
