<svg width="32" height="32" viewBox="0 0 32 32" fill="none" xmlns="http://www.w3.org/2000/svg">
<path fill-rule="evenodd" clip-rule="evenodd" d="M16 4C13.7909 4 12 5.79086 12 8V16C12 18.2091 13.7909 20 16 20C18.2091 20 20 18.2091 20 16V8C20 5.79086 18.2091 4 16 4ZM10 16C10 15.4477 9.55229 15 9 15C8.44772 15 8 15.4477 8 16C8 18.5567 8.82877 20.5914 10.3177 21.9811C11.567 23.1471 13.2015 23.7848 15 23.9539V27C15 27.5523 15.4477 28 16 28C16.5523 28 17 27.5523 17 27V23.9539C18.7985 23.7848 20.433 23.1471 21.6823 21.9811C23.1712 20.5914 24 18.5567 24 16C24 15.4477 23.5523 15 23 15C22.4477 15 22 15.4477 22 16C22 18.11 21.3288 19.5753 20.3177 20.5189C19.2951 21.4734 17.8111 22 16 22C14.1889 22 12.7049 21.4734 11.6823 20.5189C10.6712 19.5753 10 18.11 10 16Z" fill="#1F1F1F"/>
</svg>
