<svg width="32" height="32" viewBox="0 0 32 32" fill="none" xmlns="http://www.w3.org/2000/svg">
<path fill-rule="evenodd" clip-rule="evenodd" d="M17.3333 28H14.6667L14.0613 23.7625C13.2847 23.5685 12.5527 23.2607 11.8841 22.858L8.45731 25.428L6.57169 23.5424L9.14182 20.1156C8.73915 19.4471 8.43144 18.7152 8.23747 17.9387L4 17.3333V14.6667L8.23747 14.0613C8.43144 13.2848 8.73917 12.5529 9.14186 11.8844L6.57189 8.45773L8.45751 6.57211L11.8841 9.14203C12.5527 8.73926 13.2847 8.43147 14.0613 8.23747L14.6667 4H17.3333L17.9387 8.23747C18.7152 8.43144 19.4471 8.73919 20.1157 9.14188L23.5424 6.57185L25.428 8.45747L22.858 11.8841C23.2608 12.5527 23.5685 13.2847 23.7625 14.0613L28 14.6667V17.3333L23.7625 17.9387C23.5686 18.7152 23.2608 19.4472 22.8581 20.1157L25.4283 23.5427L23.5427 25.4283L20.1157 22.8581C19.4472 23.2608 18.7152 23.5685 17.9387 23.7625L17.3333 28ZM12 16C12 13.7943 13.7943 12 16 12C18.2057 12 20 13.7943 20 16C20 18.2057 18.2057 20 16 20C13.7943 20 12 18.2057 12 16Z" fill="#1F1F1F"/>
</svg>
